PathFileType	4	(X/Y/Z)	RBDS017\RBDS017runT35.trc
DataRate	CameraRate	NumFrames	NumMarkers	Units	OrigDataRate	OrigDataStartFrame	OrigNumFrames
150.000000	150.000000	4	33	mm	150.000000	2812	4500
Frame#	Time	L.ASIS			L.Heel.Bottom			L.Heel.Lateral			L.Heel.Top			L.Iliac.Crest			L.MT1			L.MT5			L.PSIS			L.Shank.Bottom.Lateral			L.Shank.Bottom.Medial			L.Shank.Top.Lateral			L.Shank.Top.Medial			L.Thigh.Bottom.Lateral			L.Thigh.Bottom.Medial			L.Thigh.Top.Lateral			L.Thigh.Top.Medial			R.ASIS			R.ASY			R.Heel.Bottom			R.Heel.Lateral			R.Heel.Top			R.Iliac.Crest			R.MT1			R.MT5			R.PSIS			R.Shank.Bottom.Lateral			R.Shank.Bottom.Medial			R.Shank.Top.Lateral			R.Shank.Top.Medial			R.Thigh.Bottom.Lateral			R.Thigh.Bottom.Medial			R.Thigh.Top.Lateral			R.Thigh.Top.Medial			
		X1	Y1	Z1	X2	Y2	Z2	X3	Y3	Z3	X4	Y4	Z4	X5	Y5	Z5	X6	Y6	Z6	X7	Y7	Z7	X8	Y8	Z8	X9	Y9	Z9	X10	Y10	Z10	X11	Y11	Z11	X12	Y12	Z12	X13	Y13	Z13	X14	Y14	Z14	X15	Y15	Z15	X16	Y16	Z16	X17	Y17	Z17	X18	Y18	Z18	X19	Y19	Z19	X20	Y20	Z20	X21	Y21	Z21	X22	Y22	Z22	X23	Y23	Z23	X24	Y24	Z24	X25	Y25	Z25	X26	Y26	Z26	X27	Y27	Z27	X28	Y28	Z28	X29	Y29	Z29	X30	Y30	Z30	X31	Y31	Z31	X32	Y32	Z32	X33	Y33	Z33	

2813	18.74666666666667	2283.984177632575	1052.255328490516	867.7712433180681	2317.892389765841	28.90345834544615	955.5806795147604	2332.479974822571	46.34417140587833	915.3460661342525	2322.175436371745	74.12452773028969	953.9643832747074	2212.8924799481	1146.675006533715	832.0908447569645	2542.756959866671	72.44811897433536	957.8879568377116	2494.637721295459	47.24589112464185	856.7510095435076	2114.876165135831	1110.407392306927	964.3968195389248	2366.637125891056	191.1538336686227	884.6864549617129	2326.902559955465	188.9345940199687	922.3939139641794	2348.716138462395	268.0229802439169	870.7624745761796	2309.404944093115	266.5838864097162	907.1621600133475	2315.911962770832	672.8551537422051	836.9855947251975	2259.141948010936	646.974142445816	873.4021472842107	2261.947612635387	768.8551593648963	827.1451946708813	2209.88491463013	745.2977618689504	863.5675208122707	2289.840603537782	1038.020353931136	1146.937550964588	1638.72217877905	367.9964540331551	1088.939286906054	1675.911916643722	566.737453746947	1043.339796212191	1673.159611911314	545.5680693107629	1091.322495630894	1711.840660807631	541.4073781404838	1061.730192085946	2255.081248333278	1138.741033946104	1180.994112947501	1614.554546471661	349.3429563718114	1037.827589761041	1584.545900831568	408.7402967231641	1131.436362197653	2123.796003781232	1109.784420469266	1066.930734184488	1783.213187683406	500.8939949062497	1132.634628970538	1784.180750162253	534.2637356265898	1093.928709401845	1864.233281363896	519.383725219483	1148.94329394057	1860.586338628809	555.2490495856725	1110.007441972881	2146.249534477833	644.6278325519304	1180.80791523776	2093.217571560433	647.2084356018755	1129.447080393497	2142.595327125545	753.9527045854517	1185.722735563583	2092.359099574491	756.9004784393668	1137.422834132878	
2814	18.75333333333333	2282.41403582548	1046.403149703511	866.6820254181849	2296.596765378829	28.54691761021843	956.5069852529726	2311.989185352764	46.45044775702775	916.8337966822969	2303.002647811411	73.71136152491503	956.2083655524868	2210.65853312392	1139.591655156661	831.375630821768	2523.899678152879	63.6025429094183	959.9869012827498	2474.411867015772	43.21381204299195	857.8467296879703	2113.041651642365	1104.099139572076	964.7148314435902	2354.6332549659	187.5999387239974	887.2120007385264	2313.825254015689	187.6158519818218	923.7158761258755	2340.683787915886	265.1106478201741	872.2924445316535	2300.428842802461	265.8814591999999	907.5985832827533	2318.140733499275	669.421214316751	837.1012510551305	2261.239860545033	642.8170755787608	872.9106826572352	2263.207232219849	764.7599231316806	826.8648787246819	2210.771904282335	740.5202455704868	862.5490605521195	2288.80922993364	1031.028478816	1146.247127543857	1646.264505256919	377.0772458149028	1088.4541454156	1690.691467794976	574.8446651360293	1043.820196670889	1687.350870413831	553.524862394663	1091.796422182506	1725.869486279343	547.8703153865121	1061.932648189572	2255.072446556217	1130.495581082298	1180.615533401388	1621.274101678029	359.6256149220148	1037.340456796696	1593.825437959899	419.7217655477231	1131.362598835177	2122.061154880986	1102.392078904579	1066.923656629344	1795.376354494745	504.6994822850126	1132.758627417149	1797.665355222131	538.2353071060901	1094.235883517713	1877.005824219196	520.0724343567069	1149.217201705351	1874.784768252138	556.1739340924738	1110.397263085883	2153.833647280211	636.7913915886235	1181.386244300724	2100.845492385337	637.6801837079313	1129.93495598481	2147.313205672724	746.0596617701874	1185.748401537679	2097.225831669856	747.375818128502	1137.2763078922	
2815	18.76	2280.673565244499	1040.37505722871	865.5081479435428	2274.533095507695	28.70173419391246	957.4309054483061	2290.598280466013	47.15858994030633	918.3422904370176	2282.834402487295	73.78236166961798	958.4724011026136	2208.284138562733	1132.208936005565	830.584095768364	2503.862265998093	56.3519847591668	961.878912848729	2453.119015042988	40.50325773767968	858.8291693075332	2111.051550360134	1098.013147952322	964.9496669223936	2341.712401766374	184.8010307127751	889.8632994436913	2299.880953866261	187.155128136787	925.0891250897445	2331.901673979376	262.8126333260345	873.971792764768	2290.747529247485	265.8822453505518	908.1013543415038	2320.034958904854	666.036188819209	837.2213084840251	2263.007445326123	638.7945058607212	872.4907066807814	2264.229392767986	760.7717091857583	826.5212205402794	2211.443929632578	735.9227480684007	861.5066098696693	2287.53418831827	1023.797744246099	1145.536537642005	1655.398943378441	384.943353010602	1088.040131992952	1705.847255781369	581.6944152514437	1044.69256712454	1702.078155784223	560.1553423470291	1092.598318740397	1740.357488822082	553.3096299484642	1062.422725146093	2254.91925015409	1121.885612133691	1180.14136305623	1629.743412503704	368.6780339474981	1036.910508133514	1604.628180613895	429.0068854446207	1131.517136636048	2120.067760032841	1095.159714246388	1066.702431804596	1808.383859617875	507.7717306339466	1133.028462946103	1811.867486621025	541.4540666582201	1094.691576424065	1890.515097391127	520.238082496345	1149.540180505762	1889.568457965197	556.5526751887205	1110.86512132584	2161.782110076858	629.3633761398625	1181.947450295419	2108.74542999352	628.508325628403	1130.586420727494	2152.26989847216	738.5000810514929	1185.761742411331	2102.306783281875	738.1355186783622	1137.20465533578	
2816	18.76666666666667	2278.764834105404	1034.309531472253	864.2252739322857	2251.988478380644	29.25242536140069	958.3124716370077	2268.585047251754	48.31321648809548	919.7988793504574	2261.891062620596	74.22873380869071	960.6404815940489	2205.792150657746	1124.702493986076	829.7129091836595	2482.868469611488	50.81894393474039	963.5077986155577	2431.041625547668	39.02731246935026	859.6868303630887	2108.937326680036	1092.277896094177	965.0933467045243	2327.875996849451	182.7384954543516	892.5105283142154	2285.131448892156	187.4649094951366	926.4448203376495	2322.25895274017	261.0844614798016	875.7251081570183	2280.307757168096	266.4727147849119	908.6539259891226	2321.353474291719	662.6748736364653	837.3616845724814	2264.18949426517	634.9328078509304	872.1659562512764	2264.858051896206	756.9178768235768	826.1458280831573	2211.737769514289	731.581340614506	860.4859532494992	2286.002850357979	1016.495948401648	1144.827347277767	1666.009251227517	391.4696077153624	1087.639378348964	1721.253720079281	587.3120166760364	1045.995263056206	1717.201517693122	565.4395062772082	1093.741451383203	1755.198071318934	557.7538348695749	1063.235083304394	2254.4109432022	1113.116736460463	1179.633630771701	1639.8296273344	376.381826127976	1036.471054253794	1616.766406040957	436.4503323856097	1131.839125329425	2117.855327688658	1088.268469926368	1066.272985357483	1822.151233800823	510.1008182929398	1133.448526176905	1826.673054281752	543.9186662898899	1095.296311852721	1904.692172141222	519.927052655863	1149.906651987869	1904.840682886557	556.4452491880334	1111.406530447801	2170.131744574987	622.5072545723322	1182.446723053896	2116.969383462434	619.8515913446283	1131.346579300325	2157.498477058673	731.4205936528165	1185.72449399117	2107.637394626595	729.3281859905873	1137.171120836202	
